<?xml version="1.0" encoding="UTF-8"?>
<svg version="1.1" xmlns="http://www.w3.org/2000/svg" width="1600" height="1600">
<path d="M0 0 C45.54 0 91.08 0 138 0 C138 22.77 138 45.54 138 69 C183.21 69 228.42 69 275 69 C275 91.44 275 113.88 275 137 C319.88 137 364.76 137 411 137 C411 159.44 411 181.88 411 205 C456.21 205 501.42 205 548 205 C548 227.77 548 250.54 548 274 C593.21 274 638.42 274 685 274 C685 499.72 685 725.44 685 958 C639.79 958 594.58 958 548 958 C548 980.77 548 1003.54 548 1027 C502.79 1027 457.58 1027 411 1027 C411 1049.44 411 1071.88 411 1095 C366.12 1095 321.24 1095 275 1095 C275 1117.44 275 1139.88 275 1163 C229.79 1163 184.58 1163 138 1163 C138 1185.44 138 1207.88 138 1231 C137 1232 137 1232 134.7373724 1232.12304783 C133.72800908 1232.12212604 132.71864576 1232.12120424 131.67869568 1232.12025452 C130.52458191 1232.12162918 129.37046814 1232.12300385 128.18138123 1232.12442017 C126.90392532 1232.12082489 125.62646942 1232.11722961 124.31030273 1232.11352539 C122.96041872 1232.11324352 121.61053456 1232.11340125 120.26065063 1232.1139679 C116.58519392 1232.11425587 112.90976957 1232.10835916 109.2343204 1232.10139394 C105.39726851 1232.09516038 101.56021596 1232.0945566 97.72315979 1232.09336853 C90.45228782 1232.09025522 83.18143081 1232.08204183 75.91056544 1232.07201904 C66.08887685 1232.05877265 56.26718419 1232.053358 46.44548893 1232.04751682 C30.96364807 1232.03810194 15.48183879 1232.01818303 0 1232 C0 1209.23 0 1186.46 0 1163 C-45.21 1163 -90.42 1163 -137 1163 C-137 1140.56 -137 1118.12 -137 1095 C-181.88 1095 -226.76 1095 -273 1095 C-273 1072.56 -273 1050.12 -273 1027 C-318.21 1027 -363.42 1027 -410 1027 C-410 1004.23 -410 981.46 -410 958 C-455.21 958 -500.42 958 -547 958 C-547 732.28 -547 506.56 -547 274 C-501.79 274 -456.58 274 -410 274 C-410 251.23 -410 228.46 -410 205 C-364.79 205 -319.58 205 -273 205 C-273 182.56 -273 160.12 -273 137 C-228.12 137 -183.24 137 -137 137 C-137 114.56 -137 92.12 -137 69 C-91.79 69 -46.58 69 0 69 C0 46.23 0 23.46 0 0 Z M1 69 C1 91.77 1 114.54 1 138 C-44.21 138 -89.42 138 -136 138 C-136 160.44 -136 182.88 -136 206 C-181.21 206 -226.42 206 -273 206 C-273 228.44 -273 250.88 -273 274 C-317.88 274 -362.76 274 -409 274 C-409 296.44 -409 318.88 -409 342 C-364.12 342 -319.24 342 -273 342 C-273 364.44 -273 386.88 -273 410 C-227.79 410 -182.58 410 -136 410 C-136 432.77 -136 455.54 -136 479 C-90.79 479 -45.58 479 1 479 C1 501.44 1 523.88 1 547 C45.88 547 90.76 547 137 547 C137 524.56 137 502.12 137 479 C182.21 479 227.42 479 274 479 C274 456.23 274 433.46 274 410 C319.21 410 364.42 410 411 410 C411 387.56 411 365.12 411 342 C455.88 342 500.76 342 547 342 C547 319.56 547 297.12 547 274 C502.12 274 457.24 274 411 274 C411 251.56 411 229.12 411 206 C365.79 206 320.58 206 274 206 C274 183.56 274 161.12 274 138 C228.79 138 183.58 138 137 138 C137 115.23 137 92.46 137 69 C92.12 69 47.24 69 1 69 Z M-478 343 C-478 523.18 -478 703.36 -478 889 C-455.23 889 -432.46 889 -409 889 C-409 911.77 -409 934.54 -409 958 C-364.12 958 -319.24 958 -273 958 C-273 980.44 -273 1002.88 -273 1026 C-227.79 1026 -182.58 1026 -136 1026 C-136 1048.44 -136 1070.88 -136 1094 C-91.12 1094.33 -46.24 1094.66 0 1095 C0.33 1117.44 0.66 1139.88 1 1163 C23.44 1163 45.88 1163 69 1163 C69 982.49 69 801.98 69 616 C46.23 616 23.46 616 0 616 C0 593.56 0 571.12 0 548 C-45.21 548 -90.42 548 -137 548 C-137 525.56 -137 503.12 -137 480 C-181.88 480 -226.76 480 -273 480 C-273 457.23 -273 434.46 -273 411 C-318.21 411 -363.42 411 -410 411 C-410 388.56 -410 366.12 -410 343 C-432.44 343 -454.88 343 -478 343 Z " fill="#DB143C" transform="translate(731,184)"/>
</svg>
